<?xml version="1.0" encoding="utf-8"?>
<!-- Generator: Adobe Illustrator 21.0.0, SVG Export Plug-In . SVG Version: 6.00 Build 0)  -->
<svg version="1.1" id="Calque_1" xmlns="http://www.w3.org/2000/svg" xmlns:xlink="http://www.w3.org/1999/xlink" x="0px" y="0px"
	 viewBox="0 0 502 447" style="enable-background:new 0 0 502 447;" xml:space="preserve">
<style type="text/css">
	.st0{fill:none;enable-background:new    ;}
	.st1{fill:#1973B7;}
</style>
<path class="st0" d="z"/>
<path class="st1" d="M53.6,0l35.8,402.2L250.2,447l161.2-45L447.3,0C447.3,0,53.6,0,53.6,0z M372.8,92.1l-11.9,134l0,0.7l0,1.7v0
	l-8.5,93.7l-0.9,8.3l-101,27.9v0l-0.1,0.1l-100.9-28.1l-6.8-77.5h49.5l3.5,39.4l54.8,14.9l0,0v0l55-15.1l5.8-64.1h-115l-1-10.8
	l-2.2-25.4l-1.2-13.6h123.8l4.5-49.9H131.6l-1-10.8L128.4,92l-1.2-13.6H374C374,78.4,372.8,92.1,372.8,92.1z"/>
</svg>
