<?xml version="1.0" encoding="utf-8"?>
<!-- Generator: Adobe Illustrator 21.0.0, SVG Export Plug-In . SVG Version: 6.00 Build 0)  -->
<svg version="1.1" id="Calque_1" xmlns="http://www.w3.org/2000/svg" xmlns:xlink="http://www.w3.org/1999/xlink" x="0px" y="0px"
	 viewBox="0 0 502 447" style="enable-background:new 0 0 502 447;" xml:space="preserve">
<style type="text/css">
	.st0{fill:none;enable-background:new    ;}
	.st1{fill:#E44E28;}
</style>
<path class="st0" d="z"/>
<path class="st1" d="M53.6,0l35.9,402.5L250.8,447l161.6-44.5L448.4,0C448.4,0,53.6,0,53.6,0z M373.6,95.3l-2.3,25.8l-1,11.8H181.3
	l4.5,50.3h180.1l-1.2,12.5l-11.6,129.7l-0.9,8.2L251,361.2v0l-0.1,0.1l-101.2-26.7l-6.9-76.1h49.6l3.5,39.2l54.9,14.7h0.2v-2
	l55.1-13.9l5.8-63.1H140.6L128.5,96.5l-1.2-13.9h247.5C374.8,82.6,373.6,95.3,373.6,95.3z"/>
</svg>
