<?xml version="1.0" encoding="utf-8"?>
<!-- Generator: Adobe Illustrator 21.0.0, SVG Export Plug-In . SVG Version: 6.00 Build 0)  -->
<svg version="1.1" id="Calque_1" xmlns="http://www.w3.org/2000/svg" xmlns:xlink="http://www.w3.org/1999/xlink" x="0px" y="0px"
	 viewBox="0 0 465 141" style="enable-background:new 0 0 465 141;" xml:space="preserve">
<style type="text/css">
	.st0{fill:none;enable-background:new    ;}
</style>
<path d="M394,38c2.5,1,5.1,1.8,7.5,3c6.4,3.4,9.4,9.9,7.7,16.7c-2.1-1.1-1.5-3.2-1.9-4.8c-1.3-5.7-4.6-9.5-10.2-11.2
	c-6.6-2.1-13.1-1.9-19.6,0.5c-5.2,2-8.3,6.9-8,12c0.3,5.6,2.8,8.9,8.7,10.7c6.2,1.9,12.4,3.5,18.6,5.2c6.7,1.9,12.6,4.8,15.1,12
	c0,2.7,0,5.3,0,8c-9.3,12.2-21.8,15.6-35.8,10c-7.2-2.9-11.7-10.1-11.3-17.7c0-0.8-0.3-1.9,0.8-2c1.6-0.2,1.2,1.1,1.3,2
	c3.1,16.7,24.3,24.1,37.6,13.2c7.5-6.2,6.2-17.2-2.9-21.1c-4.5-2-9.5-2.9-14.3-4.3c-3.2-0.9-6.4-1.8-9.5-2.8
	c-7.8-2.7-10.6-6.2-10.8-13c-0.2-6.6,3.4-11.5,10.2-14.5c1.2-0.6,3.1,0.2,3.7-1.7C385.3,38,389.7,38,394,38z"/>
<path d="M336,38c2.5,1,5.1,1.8,7.5,3c6.4,3.4,9.4,9.9,7.6,16.7c-2.1-1.2-1.5-3.2-1.9-4.8c-1.3-5.7-4.6-9.5-10.2-11.2
	c-6.6-2.1-13.2-1.9-19.6,0.5c-5.2,2-8.3,6.9-8,12c0.3,5.6,2.9,8.7,8.7,10.8c7.8,2.7,16.1,3.9,23.8,7c6,2.4,9.7,6.5,9.8,13.1
	c0.1,6.6-3,11.6-9,14.3c-9.4,4.3-19.1,4.1-28.5-0.3c-6.9-3.2-9.3-9.5-9.5-16.9c0-0.8-0.3-1.9,0.8-2c1.6-0.2,1.2,1.1,1.3,2
	c3.1,16.7,24.3,24.1,37.6,13.2c7.5-6.2,6.2-17.2-2.9-21.1c-4.5-2-9.5-2.9-14.3-4.3c-3.2-0.9-6.4-1.8-9.5-2.8
	c-7.8-2.7-10.6-6.2-10.8-13c-0.2-6.6,3.4-11.5,10.2-14.5c1.2-0.6,3.1,0.2,3.7-1.7C327.3,38,331.7,38,336,38z"/>
<path d="M156,48c3.1-5.6,8.8-7.5,14-10c4,0,8,0,12,0c9,3.6,15.7,9.4,18.3,19.1c3.2,12,2.8,23.6-4.2,34.4
	c-8.7,13.3-28.4,14.6-39.1,2.5c-0.3-1,0.3-1.4,1.2-1.6c2.1,0.1,3.5,1.7,5.3,2.7c12.9,7.3,26.5,3.2,32.2-10.5
	c5.1-12.4,4.7-24.9-4.2-35.7c-7-8.5-18.6-9.5-27.9-3.4c-1.9,1.3-3.4,3.2-5.8,3.8C156.7,49.3,156.2,48.8,156,48z"/>
<path d="M156,48c0.4,0.4,0.8,0.9,1.2,1.3c0.9,1.8-0.3,3.2-0.9,4.6c-3.7,7.9-4.7,16.1-3,24.7c0.4,2.1,2.1,5-1.6,6.2
	c-1.3,9.9-0.2,19.8-0.5,29.7c-0.1,2.5,0,5,0,7.5c-0.7,0-1.3,0-2,0c-0.1-11-0.3-21.9-0.3-32.9c-0.1-15,0-29.9,0-44.9
	c0-1.7-0.5-3.6,1.7-5.6c1.2,5.9,0.2,11.1,0.7,16.6C153.4,53,153.5,49.6,156,48z"/>
<path d="M218.2,52c2.2-8.1,9-11.1,15.8-14c2.7,0,5.3,0,8,0c-0.5,1.6-1.5,2.3-3.3,2.4c-9.5,0.3-15.7,5.4-19.8,13.6
	C218.3,53.5,218.7,52.6,218.2,52z"/>
<path d="M218.2,52c0.3,0.6,0.5,1.3,0.8,1.9c-3.6,11.9-1.4,24.1-2,36.2c-0.1,2.2,0.2,4.3-0.1,6.5c-0.2,1.4,1.2,4-1.2,4
	c-1.9,0-1-2.4-1-3.7c-0.1-17.8-0.1-35.6,0-53.4c0-1.4-0.5-3,1.5-4.4c1.8,4.6,0.3,9.1,0.9,13.5c0,0.1,0.2,0.2,0.3,0.4
	C217.7,52.7,217.9,52.4,218.2,52z"/>
<path d="M153,85.6c1.7,2.4,3.4,4.9,5.1,7.3c-0.4,0.4-0.8,0.7-1.1,1.1C154.9,91.6,151.6,89.7,153,85.6z"/>
<path d="M109.9,74.9c0.3-2.8,5-3.9,2.9-7.6c-0.3-1.1,0.2-1.4,1.2-1.3c1.9,1.6,2.4-0.3,3.2-1.3c5.9-7.6,11.8-15.1,17.7-22.7
	c1-0.1,1.6,0.2,1.2,1.3c-5.7,7.7-11.4,15.5-17.3,23.1c-1.6,2.1-1.6,3.2,0,5.4c7.4,9.5,14.6,19.3,21.3,29.3
	c-9.8-8.6-16.1-20.3-24.9-29.9c-1.4,1.6-2.8,3.2-4.3,4.8C110.1,76.2,109.6,75.9,109.9,74.9z"/>
<path d="M114,66c-0.4,0.4-0.8,0.9-1.2,1.3c-7-9.1-14-18.2-21-27.3c0.5-0.4,1-0.8,1.5-1.2C101.1,47.2,107.5,56.6,114,66z"/>
<path d="M109.9,74.9c0.4,0.4,0.7,0.8,1.1,1.2c-5.9,9.1-13.3,16.9-20.6,24.9C96.4,91.8,102.7,83,109.9,74.9z"/>
<path d="M136.1,43.3c-0.4-0.4-0.8-0.9-1.2-1.3c0.5-0.8,1-1.7,1.7-2.3c0.4-0.4,1.1-0.3,2-0.5C138.6,41.3,137.1,42.2,136.1,43.3z"/>
<path d="M65,38c13.7,4.5,19.9,14.4,21,28.3c0.3,3.4-0.6,4.6-4.2,4.5c-14.3-0.2-28.6,0-43-0.2c-3.7-0.1-4.3,1-4,4.5
	c1.5,20,17.9,30.6,35.3,22.6c6.3-2.9,10.2-7.7,12-14.4c0.4-1.5,0.4-1.5,2.1-3.5c1.2,5-2.3,12.7-7.8,16.8
	c-16.4,12.4-38.1,4.8-43.1-15.1c-0.3-1.2,0.2-2.8-1.2-3.6c0-4.7,0-9.3,0-14c0.6-7.5,3.1-14.1,8.4-19.6c3.7-3.9,8.5-5.6,13.6-6.4
	C57.7,38,61.3,38,65,38z M80.4,68.2c2.2,0,3.1-0.3,3-3C82.8,51,72.9,40.5,59.5,40.3C46.8,40,35.6,51.4,34.8,64.9
	c-0.2,2.8,0.6,3.4,3.2,3.3c7-0.1,13.9,0,20.9,0C66.1,68.1,73.2,68.1,80.4,68.2z"/>
<path d="M277,38c13.7,4.5,19.9,14.4,21,28.3c0.3,3.4-0.5,4.6-4.2,4.6c-13.8-0.2-27.6,0.1-41.4-0.2c-4.9-0.1-6.1,1-5.5,5.9
	c1.9,18.9,18.7,29,35.6,21.1c6.1-2.9,9.9-7.7,11.6-14.1c0.4-1.4,0.4-2.9,2.8-4.4c0.4,4.5-1.1,7.9-2.9,11
	c-6.4,10.7-16.6,13.1-28,11.8c-9.6-1.1-15.9-6.8-19.1-15.9c-3.2-9.2-3.6-18.4-0.8-27.8C249,47.7,256.1,41.5,266,38
	C269.7,38,273.3,38,277,38z M292.1,68.1c1.9,0,3.3,0.3,3.3-2.7c-0.3-14.2-10.6-25.2-24.2-25.2c-12.7,0-23.8,11.4-24.4,24.8
	c-0.1,2.6,0.6,3.1,3,3.1c7.1-0.1,14.3,0,21.4,0C278.2,68.1,285.1,68.1,292.1,68.1z"/>
<path class="st0" d="z"/>
</svg>
