<?xml version="1.0" encoding="utf-8"?>
<!-- Generator: Adobe Illustrator 21.0.0, SVG Export Plug-In . SVG Version: 6.00 Build 0)  -->
<svg version="1.1" id="Calque_1" xmlns="http://www.w3.org/2000/svg" xmlns:xlink="http://www.w3.org/1999/xlink" x="0px" y="0px"
	 viewBox="0 0 502 447" style="enable-background:new 0 0 502 447;" xml:space="preserve">
<style type="text/css">
	.st0{fill:none;enable-background:new    ;}
	.st1{fill:#C94A95;}
</style>
<path class="st0" d="z"/>
<g>
	<g>
		<g>
			
				<rect x="-10.8" y="168.3" transform="matrix(0.5 -0.866 0.866 0.5 -68.1151 237.5334)" class="st1" width="364.8" height="18.9"/>
		</g>
	</g>
	<g>
		<g>
			<rect x="68.5" y="305.8" class="st1" width="364.8" height="18.9"/>
		</g>
	</g>
	<g>
		<g>
			
				<rect x="162.2" y="255.5" transform="matrix(0.5 -0.866 0.866 0.5 -226.6729 329.1256)" class="st1" width="18.9" height="210.7"/>
		</g>
	</g>
	<g>
		<g>
			<rect x="320.8" y="-19.1" transform="matrix(0.5 -0.866 0.866 0.5 90.3821 329.1152)" class="st1" width="18.9" height="210.7"/>
		</g>
	</g>
	<g>
		<g>
			<rect x="66.4" y="76.8" transform="matrix(0.866 -0.5 0.5 0.866 -20.0954 97.4273)" class="st1" width="210.7" height="18.9"/>
		</g>
	</g>
	<g>
		<g>
			<rect x="320.9" y="-4.6" transform="matrix(0.866 -0.5 0.5 0.866 -44.6219 188.9937)" class="st1" width="18.9" height="364.8"/>
		</g>
	</g>
	<g>
		<g>
			<rect x="83" y="118.2" class="st1" width="18.9" height="210.7"/>
		</g>
	</g>
	<g>
		<g>
			<rect x="400.1" y="118.2" class="st1" width="18.9" height="210.7"/>
		</g>
	</g>
	<g>
		<g>
			
				<rect x="238.6" y="352.5" transform="matrix(0.866 -0.5 0.5 0.866 -136.1438 213.4476)" class="st1" width="183.3" height="16.5"/>
		</g>
	</g>
	<path class="st1" d="M444,335c-10.9,19-35.3,25.5-54.3,14.6s-25.5-35.3-14.6-54.3s35.3-25.5,54.3-14.6
		C448.6,291.7,455.1,316,444,335"/>
	<path class="st1" d="M126.7,151.8c-10.9,19-35.3,25.5-54.3,14.6c-19-10.9-25.5-35.3-14.6-54.3s35.3-25.5,54.3-14.6
		C131.2,108.5,137.7,132.7,126.7,151.8"/>
	<path class="st1" d="M57.9,335c-10.9-19-4.4-43.3,14.6-54.3c19-10.9,43.3-4.4,54.3,14.6c10.9,19,4.4,43.3-14.6,54.3
		C93.1,360.5,68.9,354.1,57.9,335"/>
	<path class="st1" d="M375.2,151.8c-10.9-19-4.4-43.3,14.6-54.3c19-10.9,43.3-4.4,54.3,14.6c10.9,19,4.4,43.3-14.6,54.3
		C410.6,177.3,386.2,170.8,375.2,151.8"/>
	<path class="st1" d="M251,446.5c-22,0-39.8-17.8-39.8-39.8c0-22,17.8-39.8,39.8-39.8c22,0,39.8,17.8,39.8,39.8
		C290.7,428.7,273,446.5,251,446.5"/>
	<path class="st1" d="M251,80c-22,0-39.8-17.8-39.8-39.8S229,0.5,251,0.5c22,0,39.8,17.8,39.8,39.8S273,80,251,80"/>
</g>
</svg>
