<?xml version="1.0" encoding="utf-8"?>
<!-- Generator: Adobe Illustrator 21.0.0, SVG Export Plug-In . SVG Version: 6.00 Build 0)  -->
<svg version="1.1" id="Calque_1" xmlns="http://www.w3.org/2000/svg" xmlns:xlink="http://www.w3.org/1999/xlink" x="0px" y="0px"
	 viewBox="0 0 502 447" style="enable-background:new 0 0 502 447;" xml:space="preserve">
<style type="text/css">
	.st0{fill:none;enable-background:new    ;}
	.st1{fill:#F6DF1C;}
	.st2{fill:#020203;}
</style>
<path class="st0" d="z"/>
<g>
	<path class="st1" d="M251,446.9c-73.2,0-146.5,0-219.7,0.1c-3.2,0-3.8-0.6-3.8-3.8c0.1-146.5,0.1-292.9,0-439.4
		c0-3.2,0.6-3.8,3.8-3.8c146.5,0.1,292.9,0.1,439.4,0c3.2,0,3.8,0.6,3.8,3.8c-0.1,146.5-0.1,292.9,0,439.4c0,3.2-0.6,3.8-3.8,3.8
		C397.5,446.9,324.2,446.9,251,446.9z"/>
	<path class="st2" d="M370.2,411.9c-24.7-0.2-46.2-6.8-63.5-24.3c-4.3-4.3-7.7-9.3-11-14.4c-2-3-2.1-4.7,1.6-6.6
		c8.9-4.7,17.5-9.8,26.1-15.1c3.2-2,4.8-2,7,1.5c7,11,16.6,18.8,29.9,20.8c8.3,1.3,16.7,1.2,24.6-2.3c15.3-6.8,17.2-24.6,3.7-34.3
		c-9.4-6.7-20.3-10.4-30.8-15c-12.1-5.3-24-10.8-33.7-20.1c-17.8-17.1-22.1-38.1-15.3-60.9c6.6-22.1,23.4-33.5,45.5-37.2
		c15.7-2.6,31.2-1.6,45.8,5.5c11.3,5.4,19.3,14.2,25.8,24.7c1.3,2.1,0.6,2.9-1.1,4c-9.3,5.9-18.6,11.7-27.7,17.9
		c-3.1,2.1-3.6-0.2-4.7-1.9c-7.9-12.1-18-16.7-30.7-13.8c-6.7,1.5-11.6,5.3-13.4,12.1c-1.8,6.6-1,13,4,18.2
		c5.9,6.2,13.8,9.2,21.5,12.5c14.7,6.5,29.5,12.7,42.7,22.1c29.4,21,28.8,65,9.9,85.5c-10.6,11.4-24,17.1-38.9,19.9
		C381.6,411.6,375.5,411.7,370.2,411.9z"/>
	<path class="st2" d="M270.6,283.7c0,24.3,0.5,48.7-0.1,73c-0.9,31.6-23.2,53.3-54.7,54.8c-17.8,0.9-34.6-1.5-49.4-12.2
		c-8.5-6.1-14.8-14-19.7-23.1c-1.1-2-1.1-3.1,1.1-4.4c9.9-5.8,19.6-11.8,29.4-17.8c2-1.2,2.8-0.9,3.9,1c2.6,4.8,5.5,9.3,9.5,13.1
		c7.2,6.7,20.6,8.3,29.1,3.3c7.1-4.2,8.9-11.3,9.1-18.7c0.3-13.3,0.2-26.7,0.2-40c0-34.3,0.1-68.5-0.1-102.8c0-3.7,0.7-5.1,4.8-5
		c10.8,0.3,21.7,0.3,32.6,0c4.4-0.1,5,1.4,5,5.3c-0.2,24.5-0.1,49-0.1,73.5C270.8,283.7,270.7,283.7,270.6,283.7z"/>
</g>
</svg>
