<?xml version="1.0" encoding="utf-8"?>
<!-- Generator: Adobe Illustrator 21.0.0, SVG Export Plug-In . SVG Version: 6.00 Build 0)  -->
<svg version="1.1" id="Calque_1" xmlns="http://www.w3.org/2000/svg" xmlns:xlink="http://www.w3.org/1999/xlink" x="0px" y="0px"
	 viewBox="0 0 502 447" style="enable-background:new 0 0 502 447;" xml:space="preserve">
<style type="text/css">
	.st0{fill:none;enable-background:new    ;}
	.st1{fill:#020203;stroke:#020203;stroke-width:37.3953;}
	.st2{fill:#346892;}
	.st3{fill:none;stroke:#FFFFFF;stroke-width:12.4651;stroke-linecap:round;stroke-linejoin:round;}
	.st4{fill:none;stroke:#FFFFFF;stroke-width:12.4651;stroke-linecap:round;stroke-linejoin:bevel;}
	.st5{fill:#FFFFFF;stroke:#FFFFFF;stroke-width:4.155;}
	.st6{fill:#FFFFFF;stroke:#FFFFFF;stroke-width:2.0775;}
	.st7{fill:none;stroke:#FFFFFF;stroke-width:3;stroke-linecap:round;stroke-linejoin:round;}
</style>
<path class="st0" d="z"/>
<g id="Layer_x0020_3">
	<path class="st1" d="M343.3,325.3c2.8-23.7,2-27.2,19.6-23.3l4.5,0.4c13.6,0.6,31.3-2.2,41.7-7c22.4-10.4,35.7-27.8,13.6-23.2
		c-50.5,10.4-53.9-6.7-53.9-6.7c53.3-79.1,75.6-179.5,56.3-204c-52.5-67-143.3-35.3-144.8-34.5l-0.5,0.1c-10-2.1-21.1-3.3-33.7-3.5
		c-22.8-0.4-40.2,6-53.3,16c0,0-162-66.7-154.4,83.9c1.6,32,45.9,242.5,98.8,178.9c19.3-23.2,38-42.9,38-42.9
		c9.3,6.2,20.4,9.3,32,8.2l0.9-0.8c-0.3,2.9-0.2,5.7,0.4,9.1c-13.6,15.2-9.6,17.9-36.9,23.5c-27.6,5.7-11.4,15.8-0.8,18.4
		c12.8,3.2,42.5,7.7,62.5-20.3l-0.8,3.2c5.3,4.3,5,30.7,5.7,49.6c0.8,18.9,2,36.5,5.9,46.9c3.9,10.4,8.4,37.2,44.2,29.5
		C318.3,420.3,341.2,411.1,343.3,325.3"/>
	<path class="st2" d="M422.7,272.1c-50.5,10.4-53.9-6.7-53.9-6.7c53.3-79.1,75.6-179.5,56.4-204c-52.5-67-143.3-35.3-144.8-34.5
		l-0.5,0.1c-10-2.1-21.1-3.3-33.7-3.5c-22.8-0.4-40.2,6-53.3,16c0,0-162-66.7-154.4,83.9c1.6,32.1,45.9,242.5,98.8,178.9
		c19.3-23.2,38-42.9,38-42.9c9.3,6.2,20.4,9.3,32,8.2l0.9-0.8c-0.3,2.9-0.2,5.7,0.4,9.1c-13.6,15.2-9.6,17.9-36.9,23.5
		c-27.6,5.7-11.4,15.8-0.8,18.4c12.8,3.2,42.5,7.7,62.5-20.3l-0.8,3.2c5.3,4.3,9.1,27.8,8.5,49.1c-0.6,21.3-1,36,3.2,47.4
		c4.2,11.4,8.4,37.2,44.2,29.5c29.9-6.4,45.4-23,47.6-50.7c1.5-19.7,5-16.8,5.2-34.4l2.8-8.3c3.2-26.7,0.5-35.3,18.9-31.3l4.5,0.4
		c13.6,0.6,31.3-2.2,41.7-7C431.5,284.9,444.8,267.5,422.7,272.1L422.7,272.1z"/>
	<path class="st3" d="M235.5,287.4c-1.4,49.7,0.3,99.7,5.2,111.9c4.9,12.2,15.3,35.8,51.1,28.1c29.9-6.4,40.8-18.8,45.5-46.2
		c3.5-20.2,10.2-76.1,11-87.6"/>
	<path class="st3" d="M192.6,38.3c0,0-162.1-66.2-154.6,84.4c1.6,32.1,45.9,242.5,98.8,178.9c19.3-23.2,36.8-41.5,36.8-41.5"/>
	<path class="st3" d="M280.2,26.2c-5.6,1.8,90.2-35,144.6,34.5c19.2,24.6-3.1,125-56.4,204"/>
	<path class="st4" d="M368.4,264.8c0,0,3.5,17.1,54,6.7c22.1-4.6,8.8,12.8-13.6,23.2c-18.4,8.5-59.7,10.7-60.4-1.1
		C346.7,263.2,370.1,272.4,368.4,264.8c-1.5-6.9-12-13.6-19-30.4c-6.1-14.7-83.1-127.3,21.4-110.6c3.8-0.8-27.2-99.4-125-101
		C148.1,21.2,151.3,143,151.3,143"/>
	<path class="st3" d="M208.2,275.2c-13.6,15.2-9.6,17.9-36.9,23.5c-27.6,5.7-11.4,15.8-0.8,18.4c12.8,3.2,42.5,7.7,62.5-20.3
		c6.1-8.5,0-22.2-8.4-25.6C220.5,269.5,215.1,267.4,208.2,275.2L208.2,275.2z"/>
	<path class="st3" d="M207.3,275c-1.4-8.9,2.9-19.6,7.6-32.1c6.9-18.7,23-37.4,10.2-96.7c-9.6-44.2-73.7-9.2-73.7-3.2
		c0,6,2.9,30.4-1.1,58.8c-5.2,37,23.6,68.4,56.7,65.2"/>
	<path class="st5" d="M192,142.1c-0.3,2,3.7,7.5,9,8.2c5.3,0.7,9.7-3.5,10-5.6c0.3-2-3.7-4.3-9-5C196.8,139,192.3,140.1,192,142.1
		L192,142.1z"/>
	<path class="st6" d="M352,137.9c0.3,2-3.7,7.5-9,8.2c-5.3,0.7-9.8-3.5-10-5.6c-0.3-2,3.8-4.3,9-5
		C347.2,134.8,351.7,135.9,352,137.9L352,137.9z"/>
	<path class="st3" d="M370.8,123.8c0.9,16.1-3.5,27-4,44.1c-0.8,24.8,11.8,53.3-7.2,81.7"/>
	<path class="st7" d="M18.9,60.4"/>
</g>
</svg>
