<?xml version="1.0" encoding="utf-8"?>
<!-- Generator: Adobe Illustrator 21.0.0, SVG Export Plug-In . SVG Version: 6.00 Build 0)  -->
<svg version="1.1" id="Calque_1" xmlns="http://www.w3.org/2000/svg" xmlns:xlink="http://www.w3.org/1999/xlink" x="0px" y="0px"
	 viewBox="0 0 502 447" style="enable-background:new 0 0 502 447;" xml:space="preserve">
<style type="text/css">
	.st0{fill:#53B7CE;}
</style>
<g>
	<path class="st0" d="M502,223.6c0-33.3-41.6-64.8-105.5-84.3c14.7-65.1,8.2-116.9-20.7-133.4c-6.7-3.9-14.4-5.7-22.9-5.7v22.8
		c4.7,0,8.5,0.9,11.7,2.7c13.9,8,20,38.4,15.2,77.5c-1.1,9.6-3,19.7-5.2,30.1c-20.1-4.9-42-8.7-65-11.2
		c-13.8-18.9-28.1-36.1-42.6-51.2c33.4-31,64.7-48,86-48V0l0,0c-28.1,0-65,20.1-102.2,54.8C213.5,20.3,176.7,0.4,148.6,0.4v22.8
		c21.2,0,52.6,16.9,86,47.7c-14.3,15-28.7,32.1-42.3,51.1c-23.1,2.5-45,6.2-65.1,11.3c-2.4-10.2-4.1-20.2-5.3-29.7
		c-4.8-39.1,1.1-69.5,14.9-77.6c3.1-1.8,7.1-2.7,11.8-2.7V0.5l0,0c-8.6,0-16.4,1.8-23.1,5.7c-28.8,16.6-35.2,68.2-20.4,133.1
		C41.4,159,0,190.4,0,223.6c0,33.3,41.6,64.8,105.5,84.3c-14.7,65.1-8.2,116.9,20.7,133.4c6.7,3.9,14.4,5.7,23,5.7
		c28.1,0,65-20.1,102.2-54.8c37.2,34.6,74.1,54.4,102.2,54.4c8.6,0,16.4-1.8,23.1-5.7c28.8-16.6,35.2-68.2,20.4-133.1
		C460.6,288.2,502,256.7,502,223.6z M368.8,155.3c-3.8,13.2-8.5,26.8-13.8,40.4c-4.2-8.2-8.6-16.4-13.4-24.6
		c-4.7-8.2-9.7-16.2-14.7-23.9C341.4,149.4,355.4,152.1,368.8,155.3z M321.9,264.3c-8,13.8-16.2,26.9-24.7,39.1
		c-15.2,1.3-30.7,2-46.3,2c-15.5,0-30.9-0.7-46-1.9c-8.5-12.2-16.8-25.2-24.8-38.9c-7.8-13.4-14.8-27-21.3-40.7
		c6.3-13.7,13.5-27.4,21.2-40.8c8-13.8,16.2-26.9,24.7-39.1c15.2-1.3,30.7-2,46.3-2c15.5,0,30.9,0.7,46,1.9
		c8.5,12.2,16.8,25.2,24.8,38.9c7.8,13.4,14.8,27,21.3,40.7C336.6,237.2,329.6,250.9,321.9,264.3z M355,251
		c5.5,13.7,10.2,27.4,14.1,40.7c-13.4,3.3-27.5,6-42.2,8.2c5-7.9,10-16,14.7-24.3C346.4,267.5,350.8,259.2,355,251z M251.2,360.2
		c-9.5-9.8-19-20.8-28.4-32.7c9.2,0.4,18.6,0.7,28.1,0.7c9.6,0,19.1-0.2,28.4-0.7C270.1,339.4,260.6,350.4,251.2,360.2z
		 M175.1,299.9c-14.5-2.1-28.5-4.8-42-8.1c3.8-13.2,8.5-26.8,13.8-40.4c4.2,8.2,8.6,16.4,13.4,24.6
		C165.2,284.2,170.1,292.1,175.1,299.9z M250.7,87c9.5,9.8,19,20.8,28.4,32.7c-9.2-0.4-18.6-0.7-28.1-0.7c-9.6,0-19.1,0.2-28.4,0.7
		C231.8,107.7,241.3,96.8,250.7,87z M175,147.2c-5,7.9-10,16-14.7,24.3c-4.7,8.2-9.1,16.4-13.3,24.6c-5.5-13.7-10.2-27.4-14.1-40.7
		C146.2,152.2,160.3,149.4,175,147.2z M82.4,275.4c-36.2-15.5-59.7-35.7-59.7-51.8s23.4-36.4,59.7-51.8c8.8-3.8,18.4-7.2,28.3-10.3
		c5.8,20.1,13.5,40.9,23,62.3c-9.4,21.3-17,42.1-22.7,62C100.9,282.6,91.3,279.1,82.4,275.4z M137.4,421.6
		c-13.9-8-20-38.4-15.2-77.5c1.1-9.6,3-19.7,5.2-30.1c20.1,4.9,42,8.7,65,11.2c13.8,18.9,28.1,36.1,42.6,51.2
		c-33.4,31-64.7,48-86,48C144.4,424.2,140.5,423.3,137.4,421.6z M380.1,343.6c4.8,39.1-1.1,69.5-14.9,77.6
		c-3.1,1.8-7.1,2.7-11.8,2.7c-21.2,0-52.6-16.9-86-47.7c14.3-15,28.7-32.1,42.3-51.1c23.1-2.5,45-6.2,65.1-11.3
		C377.2,324.2,379,334.1,380.1,343.6z M419.5,275.4c-8.8,3.8-18.4,7.2-28.3,10.3c-5.8-20.1-13.5-40.9-23-62.3
		c9.4-21.3,17-42.1,22.7-62c10.1,3.2,19.7,6.7,28.8,10.4c36.2,15.5,59.7,35.7,59.7,51.8C479.2,239.6,455.7,260,419.5,275.4z"/>
	<path class="st0" d="M148.5,0.4L148.5,0.4L148.5,0.4z"/>
	<circle class="st0" cx="250.9" cy="223.6" r="46.8"/>
	<path class="st0" d="M352.8,0.1L352.8,0.1L352.8,0.1z"/>
</g>
</svg>
