<?xml version="1.0" encoding="utf-8"?>
<!-- Generator: Adobe Illustrator 21.0.0, SVG Export Plug-In . SVG Version: 6.00 Build 0)  -->
<svg version="1.1" id="Calque_1" xmlns="http://www.w3.org/2000/svg" xmlns:xlink="http://www.w3.org/1999/xlink" x="0px" y="0px"
	 viewBox="0 0 502 447" style="enable-background:new 0 0 502 447;" xml:space="preserve">
<style type="text/css">
	.st0{fill:#674C9A;}
	.st1{fill:#775DA4;}
	.st2{fill:#755BA3;}
	.st3{fill:#A78FC3;}
	.st4{fill:#9D83BB;}
	.st5{fill:#765CA4;}
	.st6{fill:none;enable-background:new    ;}
</style>
<g>
	<path class="st0" d="M257.3,0c3.4,1.4,7.1,1.3,10.6,2.1c30,6.7,53.1,23.7,71.1,48.2c15.7,21.5,24.7,45.8,29.5,71.9
		c1.5,8.2,2.5,16.5,3.2,24.8c-1.2,0.4-2-0.1-2.8-0.4c-8.1-2.8-16.3-5.3-24.6-7.4c-2-0.5-2.8-1.2-3.1-3.4
		c-3.1-24.9-11.6-47.8-25.6-68.7c-5.7-8.5-12.4-16.1-20.4-22.4c-17-13.3-36.1-18.3-57.4-14.7c-20.5,3.4-39.4,10.6-55,24.7
		c-11.4,10.2-19.2,23.1-25.9,36.7c-9.5,19.2-14.6,39.7-16.5,61c-2.9,33.1,0.9,65.3,12,96.6c4.6,13,10.6,25.5,17.4,37.5
		c0.9,1.5,1.7,2.1,3.6,1.9c18.3-1.8,34.4,11.4,36.6,29.8c2.2,17.9-10.9,34.3-29.5,37c-17.3,2.5-34-10.1-37.1-27.8
		c-1.3-7.2-0.2-14,3-20.4c0.9-1.8,0.8-3.1-0.2-4.9c-15.6-27.3-27-56.3-32.4-87.4c-8.6-49.6-3.1-97.5,20.5-142.2
		c17.9-33.9,45.1-57.4,82.4-68.3c5.8-1.7,11.8-2.7,17.8-3.5c0.7-0.1,1.5,0.2,1.9-0.7c1.5,0,2.9,0,4.4,0c1.5,0.5,2.9,0.5,4.4,0
		C249.3,0,253.3,0,257.3,0z"/>
	<path class="st0" d="M15.6,319.6c1.6-3.5,1.4-7.5,2.1-11.2c6.4-33.2,23.5-60.2,48-82.9c6.1-5.6,12.4-10.9,19.5-15.9
		c1,4.3,2,8.3,3,12.3c1.4,5.3,2.8,10.7,4.5,16c0.6,1.8,0.1,2.7-1.3,3.9c-19.1,15.6-34.3,34.2-43.5,57.3
		c-14.8,37.5-1.1,75.6,23.2,97.1c12.6,11.1,27.7,17,44.1,19.5c38.5,5.9,74-3.1,107.6-21.7c21.9-12.2,42.2-26.3,59.5-44.6
		c12.3-13,22.6-27.4,30.9-43.2c1-1.9,0.7-3-0.6-4.6c-8.6-10.6-10.4-22.5-5.1-35c5.4-12.5,15.5-19.2,29.1-20.2
		c16.5-1.3,32.6,11.9,34.8,28.1c2.4,18.4-8.7,34.9-26,38.3c-2.1,0.4-3.4,1.2-4.5,3.2c-33.9,66.2-87.5,107.3-159.5,124.9
		c-15.4,3.8-31,6.1-46.9,5.5c-28.6-0.9-55.3-8.3-78.6-25.6c-21.2-15.8-32.8-37.4-38-62.9c-0.9-4.3-0.7-8.9-2.4-13
		C15.6,336.3,15.6,327.9,15.6,319.6z"/>
	<path class="st0" d="M345.8,447c-3.5-1.5-7.3-1.3-10.9-1.8c-18.3-2.9-35.7-8.5-52.9-16.5c2.8-2.2,5.3-4.2,7.8-6.1
		c5.9-4.5,11.8-9.1,17.3-14.1c1.3-1.2,2.4-1.3,4.1-0.6c20.3,8.4,41.3,12.4,63.3,11.6c40.4-1.5,75.2-30.8,82.8-70.4
		c3.2-16.7,0.4-32.9-5.8-48.5c-12.9-32.8-35-57.9-64.1-77.2c-26.9-17.9-56.2-29.9-88.1-35.3c-15.8-2.7-31.7-4-47.8-2.9
		c-1.8,0.1-2.4,1-3.2,2.3c-10.1,19.1-34.3,24.1-51.2,10.5c-11.2-9-15.2-24.8-9.8-38.3c5.5-13.6,19.1-22.1,33.5-21
		c11.2,0.9,19.8,6.1,26,15.4c1.2,1.8,2.3,2.5,4.5,2.4c27.8-0.7,55.1,2.3,81.8,9.9c40.6,11.5,75.9,32,105.3,62.4
		c19,19.6,34,41.8,42,68.2c2.6,8.7,4.5,17.6,5.4,26.7c0.1,0.6-0.1,1.3,0.6,1.6c0,0.4,0,0.8,0,1.3c-0.5,1.3-0.5,2.5,0,3.8
		c0,2.7,0,5.4,0,8.2c-0.5,1.5-0.5,2.9,0,4.4c0,1.9,0,3.8,0,5.7c-0.8,6.2-1.5,12.4-3.2,18.4c-4,14.1-11.1,26.3-20.8,37.1
		c-11,12.2-23.9,21.8-38.6,29c-13.5,6.6-27.7,11.3-42.7,13.2c-3,0.4-6,0.2-9,0.8c-5.2,0-10.5,0-15.7,0c-1.2-0.7-2.5-0.2-3.8-0.3
		c-1.3,0.2-2.6-0.4-3.8,0.3C347.9,447,346.8,447,345.8,447z"/>
	<path class="st1" d="M245.3,0c-1.5,1-2.9,1-4.4,0C242.4,0,243.9,0,245.3,0z"/>
	<path class="st2" d="M486.4,342.8c-1-1.5-1-2.9,0-4.4C486.4,339.9,486.4,341.3,486.4,342.8z"/>
	<path class="st3" d="M486.4,330.2c-0.9-1.3-1.1-2.5,0-3.8C486.4,327.7,486.4,329,486.4,330.2z"/>
	<path class="st4" d="M348.9,447c1.1-1.2,2.5-0.4,3.7-0.6c0.2,0.1,0.3,0.3,0.2,0.4c-0.1,0.1-0.1,0.2-0.2,0.2
		C351.4,447,350.2,447,348.9,447z"/>
	<path class="st5" d="M352.7,447c0-0.2,0-0.4,0-0.6c1.3,0.2,2.7-0.5,3.8,0.6C355.2,447,354,447,352.7,447z"/>
</g>
<path class="st6" d="z"/>
</svg>
